<?xml version="1.0" standalone="no"?>
<!DOCTYPE svg PUBLIC "-//W3C//DTD SVG 20010904//EN"
 "http://www.w3.org/TR/2001/REC-SVG-20010904/DTD/svg10.dtd">
<svg version="1.0" xmlns="http://www.w3.org/2000/svg"
 width="1050.000000pt" height="1062.000000pt" viewBox="0 0 1050.000000 1062.000000"
 preserveAspectRatio="xMidYMid meet">

<g transform="translate(0.000000,1062.000000) scale(0.100000,-0.100000)"
fill="#000000" stroke="none">
<path d="M4910 10014 c-25 -2 -101 -8 -170 -14 -767 -65 -1516 -328 -2183
-766 l-158 -104 50 -60 c27 -33 64 -83 82 -110 18 -28 35 -50 39 -50 3 0 63
38 134 85 734 486 1592 745 2464 745 1065 0 2070 -367 2897 -1059 116 -97 439
-420 536 -536 590 -705 935 -1520 1036 -2445 23 -216 23 -667 -1 -885 -148
-1360 -862 -2536 -1996 -3290 -600 -399 -1270 -639 -2015 -721 -219 -24 -688
-25 -903 -1 -735 82 -1403 319 -2002 711 -490 321 -952 779 -1277 1266 -865
1298 -994 2966 -337 4359 30 63 54 115 54 117 0 2 -37 21 -83 43 -45 21 -101
51 -123 65 l-41 25 -56 -117 c-552 -1171 -594 -2553 -112 -3767 60 -151 202
-446 284 -590 88 -154 293 -459 397 -590 1012 -1276 2565 -1947 4174 -1804
1465 130 2793 938 3591 2184 886 1384 990 3136 275 4620 -326 677 -831 1289
-1442 1748 -682 512 -1483 825 -2359 923 -131 14 -651 27 -755 18z"/>
<path d="M5022 7039 c-751 -62 -1383 -596 -1577 -1332 -82 -311 -72 -679 27
-987 183 -571 634 -1008 1213 -1175 174 -50 253 -60 490 -60 189 0 236 3 331
22 248 51 508 161 704 300 121 86 335 300 423 423 127 179 249 461 291 675
133 679 -123 1357 -671 1778 -268 206 -599 329 -958 357 -133 11 -129 11 -273
-1z"/>
</g>
</svg>
